<?xml version="1.0" encoding="UTF-8"?>
<svg version="1.1" xmlns="http://www.w3.org/2000/svg" width="500" height="500">
<path d="M0 0 C13.2 0 26.4 0 40 0 C40.80217619 16.91700447 40.80217619 16.91700447 40.9765625 24.26171875 C41.09512291 29.23119551 41.23348208 34.19315188 41.50878906 39.15673828 C43.09708809 68.54197658 43.09708809 68.54197658 35.52929688 77.72460938 C28.90867325 84.87232145 22.11618077 91.69372711 12.18603516 92.5949707 C-19.02287508 95.45519895 -47.58599898 110.19470485 -68 134 C-88.21984201 159.59314259 -96.62512272 190.7403543 -93 223 C-88.66661228 253.95276941 -72.61356697 281.70531114 -48 301 C-19.69255191 320.39650678 5.47621581 322.84226349 40 325 C40 355.03 40 385.06 40 416 C26.8 416 13.6 416 0 416 C-2.16288905 409.51133284 -3.65146412 403.04468872 -5.125 396.375 C-5.40214844 395.1478125 -5.67929688 393.920625 -5.96484375 392.65625 C-6.22652344 391.47804688 -6.48820313 390.29984375 -6.7578125 389.0859375 C-6.9964502 388.0139209 -7.23508789 386.9419043 -7.48095703 385.83740234 C-8 383 -8 383 -8 379 C-9.24394531 378.75765625 -10.48789063 378.5153125 -11.76953125 378.265625 C-20.78818339 376.4646124 -29.48873439 374.59577064 -38 371 C-38.39638672 371.88945313 -38.39638672 371.88945313 -38.80078125 372.796875 C-40.04370425 375.08029054 -41.30401646 376.47426723 -43.1875 378.25 C-45.71924363 380.70851138 -48.12320126 383.21037163 -50.4375 385.875 C-51.01113281 386.53113281 -51.58476562 387.18726563 -52.17578125 387.86328125 C-53.48970802 389.40229184 -54.77558774 390.96540654 -56.04296875 392.54296875 C-56.73003906 393.37441406 -57.41710937 394.20585937 -58.125 395.0625 C-59.05699219 396.22458984 -59.05699219 396.22458984 -60.0078125 397.41015625 C-62 399 -62 399 -64.1875 399.05859375 C-68.35679937 397.48931579 -72.05721797 395.27981478 -75.875 393 C-77.12180542 392.26656372 -77.12180542 392.26656372 -78.39379883 391.51831055 C-80.9342532 390.02054195 -83.46802364 388.5120493 -86 387 C-86.77553223 386.53803223 -87.55106445 386.07606445 -88.35009766 385.60009766 C-92.57550288 383.08112386 -96.79178205 380.54757589 -101 378 C-100.42344721 373.20994326 -99.45604787 368.87182488 -97.93359375 364.296875 C-97.53076172 363.0696875 -97.12792969 361.8425 -96.71289062 360.578125 C-96.28830145 359.30190321 -95.86316553 358.02586319 -95.4375 356.75 C-94.59762182 354.22561324 -93.76410042 351.69938807 -92.93359375 349.171875 C-92.56290771 348.0590918 -92.19222168 346.94630859 -91.81030273 345.79980469 C-90.8609974 343.00549414 -90.8609974 343.00549414 -91 340 C-92.4258111 338.43291769 -92.4258111 338.43291769 -94.375 336.9375 C-107.54375 325.9125 -107.54375 325.9125 -110 321 C-118.83357437 322.77800379 -127.2883217 325.54610178 -135.84570312 328.34179688 C-136.96525391 328.69693359 -138.08480469 329.05207031 -139.23828125 329.41796875 C-140.24930908 329.74563232 -141.26033691 330.0732959 -142.30200195 330.41088867 C-145.13449078 331.02936623 -146.41500727 331.29746289 -149 330 C-150.64404297 327.75024414 -150.64404297 327.75024414 -152.2421875 324.78515625 C-152.83386719 323.70556641 -153.42554688 322.62597656 -154.03515625 321.51367188 C-154.64230469 320.37478516 -155.24945313 319.23589844 -155.875 318.0625 C-157.07929225 315.84427137 -158.28500599 313.62681384 -159.4921875 311.41015625 C-160.07323242 310.33008301 -160.65427734 309.25000977 -161.25292969 308.13720703 C-163.35691319 304.35909244 -165.65386623 300.72734009 -168.03564453 297.11889648 C-169 295 -169 295 -168.81103516 292.88500977 C-167.44886328 289.71904677 -164.79148475 287.72905205 -162.25 285.5 C-161.07398918 284.44296368 -159.89821528 283.38566374 -158.72265625 282.328125 C-158.11309082 281.78478516 -157.50352539 281.24144531 -156.87548828 280.68164062 C-153.78028227 277.90635046 -150.73629609 275.07604523 -147.6875 272.25 C-146.58747856 271.23411617 -145.48724038 270.21846694 -144.38671875 269.203125 C-143.59910156 268.47609375 -142.81148437 267.7490625 -142 267 C-142.33773437 265.91203125 -142.67546875 264.8240625 -143.0234375 263.703125 C-145.62292054 255.1880459 -147.85659551 246.85711838 -149 238 C-150.81177734 237.8453125 -150.81177734 237.8453125 -152.66015625 237.6875 C-159.03266638 236.97847243 -165.2057851 235.47364591 -171.4375 234 C-172.62021484 233.72671875 -173.80292969 233.4534375 -175.02148438 233.171875 C-183.71851504 231.14074248 -183.71851504 231.14074248 -186 230 C-186 215.48 -186 200.96 -186 186 C-168.45811856 181.32216495 -168.45811856 181.32216495 -161.3125 179.75 C-160.55517578 179.57726562 -159.79785156 179.40453125 -159.01757812 179.2265625 C-155.56726046 178.46050078 -152.55312503 178 -149 178 C-148.82984375 176.99582031 -148.6596875 175.99164063 -148.484375 174.95703125 C-146.92331693 166.04795139 -144.89610642 157.58541193 -142 149 C-145.82762334 145.08075802 -149.67263446 141.21631192 -153.8125 137.625 C-154.45703125 137.06296875 -155.1015625 136.5009375 -155.765625 135.921875 C-157.49166819 134.43723645 -159.2346126 132.97223349 -160.984375 131.515625 C-162.01092191 130.63600596 -163.03696647 129.75580032 -164.0625 128.875 C-165.02285156 128.06804687 -165.98320312 127.26109375 -166.97265625 126.4296875 C-169 124 -169 124 -168.81103516 121.68481445 C-167.90318044 118.67949285 -166.65240397 116.31353971 -165.05078125 113.61328125 C-164.44943359 112.59169922 -163.84808594 111.57011719 -163.22851562 110.51757812 C-162.28008789 108.93106445 -162.28008789 108.93106445 -161.3125 107.3125 C-160.69955078 106.27416016 -160.08660156 105.23582031 -159.45507812 104.16601562 C-155.66721481 97.75918425 -151.83632782 91.37790609 -148 85 C-139.15303892 86.79202836 -130.66274929 89.5268556 -122.06640625 92.25390625 C-120.38224609 92.78177734 -120.38224609 92.78177734 -118.6640625 93.3203125 C-117.64779785 93.64273926 -116.6315332 93.96516602 -115.58447266 94.29736328 C-112.96389348 95.131173 -112.96389348 95.131173 -110 95 C-108.46691252 93.60784306 -108.46691252 93.60784306 -107 91.6875 C-103.87596461 87.96140212 -100.60854198 84.4507463 -97.1875 81 C-96.46723633 80.26076294 -96.46723633 80.26076294 -95.73242188 79.5065918 C-94.52736415 78.29747448 -93.26750437 77.14348653 -92 76 C-91.34 76 -90.68 76 -90 76 C-90.33322266 74.95545654 -90.66644531 73.91091309 -91.00976562 72.8347168 C-92.24409433 68.9615787 -93.47275596 65.08666254 -94.69970703 61.21118164 C-95.23168829 59.53360682 -95.76520836 57.85651918 -96.30029297 56.17993164 C-97.06882638 53.77095725 -97.83182176 51.36028918 -98.59375 48.94921875 C-98.83436157 48.19912033 -99.07497314 47.44902191 -99.32287598 46.67619324 C-100.26652983 43.67462918 -101 41.1666551 -101 38 C-99.52563477 36.80834961 -99.52563477 36.80834961 -97.44140625 35.65234375 C-96.28523804 34.99830566 -96.28523804 34.99830566 -95.10571289 34.33105469 C-94.26645264 33.87118164 -93.42719238 33.41130859 -92.5625 32.9375 C-90.82226491 31.96340304 -89.08269565 30.98811574 -87.34375 30.01171875 C-86.45558594 29.51591309 -85.56742187 29.02010742 -84.65234375 28.50927734 C-82.1020538 27.05807222 -79.59414061 25.55483207 -77.09375 24.01953125 C-76.3298999 23.55361572 -75.5660498 23.0877002 -74.77905273 22.60766602 C-73.32523832 21.71718667 -71.87659725 20.81819358 -70.43383789 19.90991211 C-65.52163959 16.93466444 -65.52163959 16.93466444 -62.92797852 17.25952148 C-59.97029554 18.39547849 -58.44272082 20.45087238 -56.375 22.8125 C-55.59898437 23.68519531 -54.82296875 24.55789062 -54.0234375 25.45703125 C-52 28 -52 28 -50.9140625 30.26171875 C-50.06523197 32.36297409 -50.06523197 32.36297409 -47 33 C-45.24609375 34.70703125 -45.24609375 34.70703125 -43.4375 36.8125 C-42.83808594 37.49957031 -42.23867187 38.18664062 -41.62109375 38.89453125 C-40.10351251 40.86555845 -39.02097042 42.73964261 -38 45 C-36.83984375 44.59007812 -35.6796875 44.18015625 -34.484375 43.7578125 C-25.71854798 40.71561015 -17.26911339 38.05413446 -8 37 C-7.896875 35.79214844 -7.79375 34.58429688 -7.6875 33.33984375 C-6.97847243 26.96733362 -5.47364591 20.7942149 -4 14.5625 C-3.72671875 13.37978516 -3.4534375 12.19707031 -3.171875 10.97851562 C-1.14074248 2.28148496 -1.14074248 2.28148496 0 0 Z " fill="#00000005" transform="translate(228,42)"/>
<path d="M0 0 C5.76713325 4.20586513 9.68361372 9.49124386 11.12109375 16.546875 C12.00891927 25.68407932 11.12756336 33.01663402 5.37109375 40.296875 C0.93028 45.14743965 -4.52881074 48.30446002 -11.171875 48.78515625 C-25.35109675 49.05537211 -25.35109675 49.05537211 -30.87890625 44.546875 C-33.12028608 42.37326908 -35.17381637 40.16909656 -36.87890625 37.546875 C-36.87890625 36.886875 -36.87890625 36.226875 -36.87890625 35.546875 C-40.86283169 35.64125536 -44.8462552 35.74752305 -48.82958984 35.86425781 C-50.84195958 35.92083623 -52.85457852 35.96831588 -54.8671875 36.015625 C-70.96521581 36.50099269 -78.11474211 40.4267553 -89.25390625 51.796875 C-90.08535156 52.63734375 -90.91679687 53.4778125 -91.7734375 54.34375 C-93.81322172 56.40698002 -95.84816911 58.47474623 -97.87890625 60.546875 C-83.39707253 60.73398166 -68.91542693 60.87440658 -54.43263149 60.96137238 C-47.70752429 61.00257702 -40.98316924 61.05872333 -34.25854492 61.15039062 C-27.76809274 61.23735016 -21.27842151 61.28515738 -14.78743172 61.30589294 C-12.31181607 61.32066852 -9.83624292 61.34952272 -7.36096001 61.39271545 C-3.89131398 61.45084846 -0.4248891 61.45878553 3.04516602 61.45507812 C4.57833969 61.49822144 4.57833969 61.49822144 6.14248657 61.54223633 C11.61862958 61.48960542 11.61862958 61.48960542 16.21726799 58.79270935 C18.07072919 56.69835321 18.07072919 56.69835321 19.58250332 54.50908661 C23.11937765 49.9984022 27.96706468 48.81171464 33.45703125 48.13671875 C42.37371941 47.75954864 49.16229826 49.20924498 55.9609375 55.15625 C62.31865806 61.93367338 63.77487196 69.1518491 63.53125 78.29296875 C62.67796806 85.06233884 59.7473511 90.37825085 54.74609375 94.984375 C46.93667733 100.86225132 39.81233097 101.67877701 30.12109375 100.546875 C25.94359245 99.28859147 21.45772546 97.77929354 19.11775112 93.87110996 C17.64898688 91.55314002 16.36915828 90.14463031 14.12109375 88.546875 C9.09592775 87.48779992 4.09730635 87.64070426 -1.00952148 87.72045898 C-2.56240871 87.7191584 -4.11529592 87.71480146 -5.66816711 87.70762634 C-9.87995288 87.69708333 -14.09039563 87.73000453 -18.30195117 87.7712543 C-22.72315774 87.80768089 -27.14435676 87.80582141 -31.56568909 87.80860901 C-38.99967328 87.81874866 -46.43315409 87.85493704 -53.86694336 87.90893555 C-63.36920231 87.97785355 -72.87109955 88.00582193 -82.37357998 88.01992702 C-90.57975747 88.03228079 -98.78585915 88.06201137 -106.99197507 88.0953114 C-109.60964702 88.10540952 -112.22732007 88.11350659 -114.84499931 88.12145805 C-118.98603773 88.13529734 -123.12688861 88.15999907 -127.26782036 88.19260597 C-128.77569682 88.20311086 -130.28359937 88.21048882 -131.79150772 88.21425629 C-153.20472668 88.27466051 -173.45113295 91.32173572 -189.87109375 106.37890625 C-203.78429815 121.40191878 -208.53885817 137.78285571 -208.19140625 157.8203125 C-207.58191447 173.33695737 -200.58638008 187.40750306 -189.87890625 198.546875 C-173.06625873 213.2902736 -155.27854945 216.62336614 -133.61791992 216.77148438 C-132.44576935 216.78287445 -131.27361877 216.79426453 -130.06594849 216.80599976 C-119.3632948 216.9028175 -108.66004192 216.95477974 -97.95701122 216.99169159 C-90.0620627 217.01934194 -82.16800416 217.07036931 -74.27342623 217.15216589 C-68.69864361 217.2079594 -63.12410306 217.23692529 -57.54905111 217.2461648 C-54.22744508 217.25241087 -50.90713258 217.27401132 -47.58577538 217.31755066 C-43.88742781 217.36357786 -40.19148877 217.36577816 -36.49291992 217.35742188 C-35.40033371 217.38101776 -34.3077475 217.40461365 -33.18205261 217.42892456 C-27.6595647 217.45809376 -27.6595647 217.45809376 -22.91073036 214.99658203 C-21.41555375 213.24760525 -20.16065131 211.45341434 -18.87890625 209.546875 C-12.64026928 204.68629311 -6.04465717 203.75433937 1.71484375 204.06640625 C8.58694132 205.03575029 13.85667776 207.82909069 18.55859375 212.921875 C24.43647007 220.73129142 25.25299576 227.85563778 24.12109375 237.546875 C21.55145737 246.07806778 16.44851183 250.89743536 9.05859375 255.421875 C2.66305609 257.8582703 -6.42086859 257.8582703 -12.81640625 255.421875 C-17.66839344 252.45127059 -21.70964885 249.3007611 -24.87890625 244.546875 C-26.97390382 244.10978445 -26.97390382 244.10978445 -29.42041016 244.20629883 C-30.36123444 244.20652542 -31.30205872 244.20675201 -32.27139282 244.20698547 C-33.28913788 244.22246933 -34.30688293 244.23795319 -35.35546875 244.25390625 C-36.39585297 244.25815109 -37.43623718 244.26239594 -38.50814819 244.26676941 C-41.84032772 244.28360018 -45.17190866 244.32126078 -48.50390625 244.359375 C-50.75910587 244.37441613 -53.01431494 244.38810553 -55.26953125 244.40039062 C-60.8061948 244.43351801 -66.34250777 244.4837608 -71.87890625 244.546875 C-68.70815972 247.83430859 -65.51457401 251.09862953 -62.31640625 254.359375 C-61.42115234 255.28814453 -60.52589844 256.21691406 -59.60351562 257.17382812 C-51.74310209 265.14941255 -45.59975545 268.56975789 -34.26245117 268.75219727 C-33.16168747 268.77214249 -32.06092377 268.79208771 -30.92680359 268.81263733 C-29.74955215 268.82934982 -28.57230072 268.84606232 -27.359375 268.86328125 C-25.5388134 268.8944529 -25.5388134 268.8944529 -23.68147278 268.92625427 C-19.80984074 268.99156416 -15.9381417 269.05054863 -12.06640625 269.109375 C-9.43944623 269.15257785 -6.81249296 269.19619271 -4.18554688 269.24023438 C2.24992946 269.34722658 8.68547224 269.44902736 15.12109375 269.546875 C15.53294922 268.39058594 15.53294922 268.39058594 15.953125 267.2109375 C18.01154557 262.51581098 21.88492528 260.29372678 26.12109375 257.734375 C32.60146324 255.24855699 40.47348084 255.44819641 47.0390625 257.42578125 C54.008578 260.62058185 58.84252153 265.22966619 61.99609375 272.234375 C64.23298185 279.14595739 64.22247095 286.69909377 61.43359375 293.421875 C57.76808708 300.50937566 53.09255835 305.61191544 45.30078125 308.13671875 C37.71750688 309.56367898 29.80429558 309.5567961 23.12109375 305.546875 C16.21587353 300.57678706 16.21587353 300.57678706 15.12109375 295.546875 C14.35038544 295.55797806 13.57967712 295.56908112 12.78561401 295.58052063 C5.4613912 295.68141963 -1.86248659 295.75718876 -9.18722725 295.80593586 C-12.95145859 295.83184142 -16.71510759 295.86688116 -20.47900391 295.92407227 C-24.12305146 295.97908498 -27.76654511 296.00843796 -31.41097641 296.02126122 C-32.78945493 296.03037895 -34.16790903 296.048177 -35.54614639 296.07552528 C-47.88891938 296.31031806 -59.47379512 294.0859629 -69.31640625 286.171875 C-70.27933594 285.39972656 -71.24226562 284.62757813 -72.234375 283.83203125 C-79.54178625 277.51765078 -79.54178625 277.51765078 -81.87890625 274.546875 C-81.87890625 273.886875 -81.87890625 273.226875 -81.87890625 272.546875 C-82.44996094 272.31484375 -83.02101563 272.0828125 -83.609375 271.84375 C-86.43621683 270.22841181 -88.08060437 268.27134967 -90.19140625 265.796875 C-93.38057879 262.15734312 -96.5882336 258.90829082 -100.32421875 255.84375 C-103.52558924 253.17326005 -106.35577766 250.22614437 -108.89599609 246.92773438 C-113.18345205 243.50563007 -116.64871528 243.90466429 -121.98046875 244.015625 C-122.97154633 244.01236206 -123.9626239 244.00909912 -124.98373413 244.0057373 C-129.20280536 243.9926712 -133.42080055 244.03658701 -137.63964844 244.07666016 C-166.70575526 244.27311451 -189.73698634 236.73666232 -211.12890625 216.734375 C-229.19656711 197.7538218 -236.72598913 173.28610314 -236.87890625 147.546875 C-235.81839018 123.61295545 -224.55924196 101.16869155 -207.375 84.69921875 C-194.67474229 73.74797931 -180.1711863 66.41707179 -163.87890625 62.546875 C-162.75548828 62.24523437 -162.75548828 62.24523437 -161.609375 61.9375 C-159.04367046 61.57044642 -156.76831556 61.55248795 -154.18359375 61.6171875 C-142.55045932 62.11271567 -142.55045932 62.11271567 -132.72314453 56.78857422 C-130.63787787 54.47455691 -128.75366992 52.03297465 -126.87890625 49.546875 C-125.241836 47.8511284 -123.56881449 46.18997138 -121.87890625 44.546875 C-120.36414851 43.03559307 -118.85133334 41.52236303 -117.33984375 40.0078125 C-112.51953125 35.1875 -107.69921875 30.3671875 -102.87890625 25.546875 C-102.3370166 24.96373535 -101.79512695 24.3805957 -101.23681641 23.77978516 C-99.87890625 22.546875 -99.87890625 22.546875 -97.87890625 22.546875 C-97.87890625 21.886875 -97.87890625 21.226875 -97.87890625 20.546875 C-95.89453125 18.9609375 -95.89453125 18.9609375 -93.12890625 17.171875 C-92.2471875 16.58664063 -91.36546875 16.00140625 -90.45703125 15.3984375 C-78.92094671 9.05462532 -67.91678012 9.04322331 -55.12890625 9.296875 C-53.35288487 9.31698335 -51.57684134 9.33522641 -49.80078125 9.3515625 C-45.49293283 9.39518602 -41.18617038 9.46396941 -36.87890625 9.546875 C-36.46705078 8.39058594 -36.46705078 8.39058594 -36.046875 7.2109375 C-33.98845443 2.51581098 -30.11507472 0.29372678 -25.87890625 -2.265625 C-17.48176444 -5.48670157 -7.6573311 -4.47620669 0 0 Z " fill="#00000005" transform="translate(394.87890625,97.453125)"/>
<path d="M0 0 C1.6670826 -0.0129007 1.6670826 -0.0129007 3.36784363 -0.02606201 C4.58806213 -0.03032196 5.80828064 -0.03458191 7.06547546 -0.03897095 C8.3504039 -0.04714844 9.63533234 -0.05532593 10.959198 -0.06375122 C15.22596646 -0.08996024 19.4927446 -0.1052884 23.75956726 -0.11953735 C25.23243401 -0.12489951 26.7053007 -0.13027703 28.17816734 -0.13566971 C34.31263664 -0.1573063 40.44710334 -0.17603617 46.58160114 -0.1872921 C55.34631134 -0.20348306 64.1105748 -0.23653263 72.87511665 -0.29369295 C79.05029159 -0.33257672 85.22534806 -0.35194705 91.4006421 -0.35721266 C95.08113393 -0.36084413 98.76114923 -0.37262492 102.44150734 -0.4053154 C106.56252002 -0.4413917 110.68259237 -0.43697884 114.80375671 -0.42959595 C116.00170868 -0.44600128 117.19966064 -0.46240662 118.43391418 -0.47930908 C130.50118914 -0.3914407 141.5925994 3.03113696 150.64628601 11.15390015 C151.49191101 11.88222046 152.33753601 12.61054077 153.20878601 13.3609314 C157.44386706 17.07278295 161.14797825 20.73654543 164.64628601 25.15390015 C165.76003601 25.98921265 165.76003601 25.98921265 166.89628601 26.84140015 C167.47378601 27.27452515 168.05128601 27.70765015 168.64628601 28.15390015 C168.64628601 28.81390015 168.64628601 29.47390015 168.64628601 30.15390015 C169.30628601 30.15390015 169.96628601 30.15390015 170.64628601 30.15390015 C171.5569659 31.45614273 172.44964753 32.77099386 173.33378601 34.09140015 C175.89280595 37.15365832 177.09983539 38.06220548 181.09159851 38.73202515 C183.69798554 38.80574114 186.30484955 38.86401189 188.91191101 38.9078064 C195.9282518 39.37018032 201.30949959 42.3777095 206.08378601 47.46640015 C211.76625371 54.98399905 212.81886686 62.85142542 211.64628601 72.15390015 C209.01529603 80.67830768 203.99196075 85.49328296 196.58378601 90.02890015 C189.27116576 92.76289781 180.2579274 92.34433723 173.20878601 89.15390015 C167.55401403 85.87469136 163.46897091 81.38502338 160.27128601 75.71640015 C159.12502494 71.01672976 158.40054622 66.2081397 158.97709656 61.38851929 C158.52530074 56.9709231 156.26829555 54.96372502 153.20487976 52.02108765 C152.64438431 51.46196686 152.08388885 50.90284607 151.50640869 50.32678223 C150.31880453 49.14822583 149.12393233 47.97695432 147.92240906 46.81259155 C146.09873658 45.04340404 144.29995244 43.25166546 142.50370789 41.4546814 C141.34299794 40.30873096 140.18093001 39.16415405 139.01737976 38.02108765 C138.21849586 37.22721146 138.21849586 37.22721146 137.4034729 36.41729736 C128.59601444 27.93400686 120.29311757 27.00352563 108.42778015 27.00863647 C107.30673386 27.00527786 106.18568756 27.00191925 105.03067017 26.99845886 C101.33091621 26.98897256 97.63120761 26.98700703 93.93144226 26.9859314 C91.35603822 26.98271763 88.78063437 26.97935346 86.20523071 26.97584534 C80.80935668 26.96986018 75.4135006 26.96796197 70.0176239 26.96859741 C63.79191375 26.96919826 57.56629022 26.95864127 51.34060198 26.94285375 C45.3370286 26.92817529 39.33350209 26.92461005 33.32990837 26.92520714 C30.78184594 26.92402759 28.23378286 26.91960724 25.68573189 26.91187477 C22.1218103 26.90207061 18.55811162 26.9049546 14.9941864 26.91098022 C13.94409393 26.90536072 12.89400146 26.89974121 11.81208801 26.89395142 C2.38084787 26.9041604 2.38084787 26.9041604 -5.79121399 31.15390015 C-8.05769683 35.5055472 -8.12078165 39.34588839 -7.35371399 44.15390015 C-5.4113946 47.88315338 -4.16742788 48.86819451 -0.20980835 50.25776672 C3.8429395 51.19960125 7.64671277 51.47025985 11.78129578 51.49203491 C12.95343124 51.50933907 12.95343124 51.50933907 14.14924622 51.5269928 C16.71208272 51.56106558 19.27468007 51.57974694 21.83769226 51.5953064 C23.15728597 51.60566075 23.15728597 51.60566075 24.50353813 51.61622429 C29.15292901 51.65194656 33.80220021 51.67555034 38.45170593 51.68930054 C43.2460949 51.70589681 48.03902154 51.76442325 52.83291721 51.83244419 C56.52959605 51.8772325 60.22592275 51.89079461 63.92284966 51.89591789 C65.69032335 51.90380302 67.45778609 51.92342297 69.22499275 51.95514107 C78.5193202 52.48537408 78.5193202 52.48537408 87.0138092 49.60697937 C88.518009 47.85134221 89.55851543 46.18145334 90.64628601 44.15390015 C96.88492298 39.29331826 103.4805351 38.36136451 111.24003601 38.6734314 C118.82618845 39.74349648 124.8332684 43.16614031 129.46269226 49.2906189 C134.00895689 56.44760975 134.70308334 63.76997469 133.64628601 72.15390015 C131.01529603 80.67830768 125.99196075 85.49328296 118.58378601 90.02890015 C112.18824835 92.46529545 103.10432367 92.46529545 96.70878601 90.02890015 C91.85679882 87.05829574 87.81554341 83.90778625 84.64628601 79.15390015 C81.80851527 78.86422694 79.18735436 78.76852671 76.34794617 78.8008728 C75.48910828 78.79871262 74.63027039 78.79655243 73.7454071 78.79432678 C71.87492964 78.7912329 70.00443201 78.79486597 68.13397598 78.80434036 C65.1646605 78.81805822 62.19601517 78.81165054 59.22669983 78.79949951 C50.78237123 78.76852574 42.33819459 78.77329174 33.8938446 78.79354858 C28.73014604 78.8045283 23.56694607 78.7911347 18.4033165 78.7636528 C16.44273052 78.75824253 14.48209373 78.76219802 12.52154922 78.77605057 C-2.45675452 78.88054228 -13.89265514 77.48992959 -25.15840149 66.62265015 C-32.34098273 58.54544135 -35.75121614 50.13742422 -35.72871399 39.40390015 C-35.72710266 38.60693726 -35.72549133 37.80997437 -35.72383118 36.98886108 C-35.59333451 30.7071099 -34.51425589 25.65477411 -31.35371399 20.15390015 C-30.75558899 19.10202515 -30.15746399 18.05015015 -29.54121399 16.96640015 C-22.26310582 7.6088325 -12.32778502 0.07102272 0 0 Z " fill="#00000005" transform="translate(246.3537139892578,210.84609985351563)"/>
</svg>
